# xmcd
#
# Track frame offsets: 
#        150
#        16124
#        28469
#        41084
#        53999
#        66165
#        79686
#        90167
#        104608
#        117286
#        128561
#        141159
#        157736
#        180627
#        204179
#        220224
#        232171
#        242854
#        255002
#        269399
#        288512
#        298793
#        309296
#        319816
#        334480
#        346541
#        356548
#
# Disc length: 4892 seconds
#
# Revision: 1
# Processed by: cddbd v1.5.2PL0 Copyright (c) Steve Scherf et al.
# Submitted via: ExactAudioCopyFreeDBPlugin 1.0
#
DISCID=88131a1b
DTITLE=B.B. King - Complete Recordings 1949-1962 [Enlightenment Record
DTITLE=s]
DYEAR=2015
DGENRE=Blues
TTITLE0=Feel Like a Million
TTITLE1=I'll Survive
TTITLE2=Good Man Gone Bad
TTITLE3=You're on the Top
TTITLE4=If I Lost You
TTITLE5=Partin' Time
TTITLE6=I'm King
TTITLE7=Mr. Pawn Broker
TTITLE8=Driving Wheel
TTITLE9=Cat Fish Blues (Fishin' After Me)
TTITLE10=Please Set the Date
TTITLE11=Walking Dr. Bill (O.D.)
TTITLE12=Hold That Train
TTITLE13=You Done Lost Your Good Thing Now
TTITLE14=My Own Fault, Darling
TTITLE15=Understand
TTITLE16=Bad Case of Love
TTITLE17=Get Out of Here
TTITLE18=Baby, Look at You
TTITLE19=You're Breaking My Heart
TTITLE20=My Reward
TTITLE21=Don't Cry Anymore
TTITLE22=Blues for Me
TTITLE23=Just Like a Woman
TTITLE24=Shut Your Mouth
TTITLE25=Bad Luck Soul
TTITLE26=Peace of Mind
EXTD=
EXTT0=
EXTT1=
EXTT2=
EXTT3=
EXTT4=
EXTT5=
EXTT6=
EXTT7=
EXTT8=
EXTT9=
EXTT10=
EXTT11=
EXTT12=
EXTT13=
EXTT14=
EXTT15=
EXTT16=
EXTT17=
EXTT18=
EXTT19=
EXTT20=
EXTT21=
EXTT22=
EXTT23=
EXTT24=
EXTT25=
EXTT26=
PLAYORDER=
